General

Sci-Fi från 2011 av Andrew Niccol med Justin Timberlake och Amanda Seyfried.

I en framtid där åldrande inte längre existerar har livslängd blivit en lyx och tid den främsta handelsvaran. De rika kan köpa sig till nästintill evigt liv medan de fattiga kämpar, stjäl och tigger sig till extra dagar, månader och år. I denna värld lever Will Salas på fattigdomsgränsen vilket innebär att varje dag kan vara hans sista. När han anklagas för mord tvingas han att fly och tillsammans med en ung kvinna försöker han rentvå sitt namn. Men tiden är inte på deras sida. 





Complete name                    : In Time Swesub-K59 (2011).mkv
Format                           : Matroska
File size                        : 1.25 GiB
Duration                         : 1h 49mn
Overall bit rate                 : 1 637 Kbps



Video

Bit rate                         : 1 477 Kbps
Width                            : 720 pixels
Height                           : 480 pixels
Display aspect ratio             : 16:9
Frame rate                       : 23.976 fps
Color space                      : YUV
Chroma subsampling               : 4:2:0
Bit depth                        : 8 bits
Scan type                        : Progressive
Bits/(Pixel*Frame)               : 0.178
Stream size                      : 1.13 GiB (90%)


Audio
ID                               : 2
Format                           : MPEG Audio
Format version                   : Version 1
Format profile                   : Layer 3
Mode                             : Joint stereo
Mode extension                   : MS Stereo
Codec ID                         : A_MPEG/L3
Codec ID/Hint                    : MP3
Duration                         : 1h 49mn
Bit rate mode                    : Constant
Bit rate                         : 128 Kbps
Channel(s)                       : 2 channels
Sampling rate                    : 44.1 KHz
Compression mode                 : Lossy
Stream size                      : 100 MiB (8%)
Writing library                  : LAME3.98
Language                         : English

Subtitle                         : Swedish


PLEASE SEED AFTER DOWNLOAD.